<svg version="1.1" viewBox="0.0 0.0 600.0 371.0" fill="none" stroke="none" stroke-linecap="square" stroke-miterlimit="10" width="600" height="371" xmlns:xlink="http://www.w3.org/1999/xlink" xmlns="http://www.w3.org/2000/svg"><path fill="#ffffff" d="M0 0L600.0 0L600.0 371.0L0 371.0L0 0Z" fill-rule="nonzero"/><path stroke="#cccccc" stroke-width="1.0" stroke-linecap="butt" d="M106.5 87.5L106.5 308.5" fill-rule="nonzero"/><path stroke="#cccccc" stroke-width="1.0" stroke-linecap="butt" d="M193.5 87.5L193.5 308.5" fill-rule="nonzero"/><path stroke="#cccccc" stroke-width="1.0" stroke-linecap="butt" d="M279.5 87.5L279.5 308.5" fill-rule="nonzero"/><path stroke="#cccccc" stroke-width="1.0" stroke-linecap="butt" d="M365.5 87.5L365.5 308.5" fill-rule="nonzero"/><path stroke="#cccccc" stroke-width="1.0" stroke-linecap="butt" d="M451.5 87.5L451.5 308.5" fill-rule="nonzero"/><path stroke="#cccccc" stroke-width="1.0" stroke-linecap="butt" d="M538.5 87.5L538.5 308.5" fill-rule="nonzero"/><path stroke="#333333" stroke-width="1.0" stroke-linecap="butt" d="M63.5 308.5L581.5 308.5" fill-rule="nonzero"/><path stroke="#cccccc" stroke-width="1.0" stroke-linecap="butt" d="M63.5 234.5L581.5 234.5" fill-rule="nonzero"/><path stroke="#cccccc" stroke-width="1.0" stroke-linecap="butt" d="M63.5 161.5L581.5 161.5" fill-rule="nonzero"/><path stroke="#cccccc" stroke-width="1.0" stroke-linecap="butt" d="M63.5 87.5L581.5 87.5" fill-rule="nonzero"/><path stroke="#000000" stroke-width="1.0" stroke-linecap="butt" d="M63.5 308.5L63.5 87.5" fill-rule="nonzero"/><clipPath id="id_0"><path d="M63.55 87.28333L581.45 87.28333L581.45 308.45L63.55 308.45L63.55 87.28333Z" clip-rule="nonzero"/></clipPath><path stroke="#ffd966" stroke-width="3.0" stroke-linecap="butt" clip-path="url(#id_0)" d="M63.55 293.70557C63.55 293.70557 92.32222 283.87592 106.708336 278.96112C121.094444 274.0463 135.48056 269.13147 149.86667 264.21667C164.25278 259.30185 178.63889 254.38704 193.025 249.47223C207.41112 244.5574 221.79723 239.6426 236.18333 234.72778C250.56944 229.81296 264.95557 224.89815 279.34167 219.98334C293.72778 215.06851 308.1139 210.1537 322.5 205.23889C336.8861 200.32408 351.27222 195.40926 365.65833 190.49445C380.04443 185.57964 394.43054 180.66481 408.81668 175.75C423.2028 170.83519 437.5889 165.92036 451.975 161.00555C466.3611 156.09074 480.74722 151.17592 495.13333 146.26111C509.51944 141.3463 523.9056 136.43149 538.2917 131.51666C552.6778 126.60185 581.45 116.772224 581.45 116.772224" fill-rule="nonzero"/><path stroke="#ff9900" stroke-width="3.0" stroke-linecap="butt" clip-path="url(#id_0)" d="M63.55 271.5889C63.55 271.5889 92.32222 244.31166 106.708336 237.67667C121.094444 231.04167 135.48056 233.25333 149.86667 231.77888C164.25278 230.30444 178.63889 229.56721 193.025 228.83C207.41112 228.09277 221.79723 227.84703 236.18333 227.35556C250.56944 226.86407 264.95557 226.37259 279.34167 225.8811C293.72778 225.38963 308.1139 224.77528 322.5 224.40666C336.8861 224.03806 351.27222 223.91519 365.65833 223.66945C380.04443 223.4237 394.43054 223.17796 408.81668 222.93222C423.2028 222.68648 437.5889 222.39159 451.975 222.195C466.3611 221.99841 480.74722 221.87553 495.13333 221.75267C509.51944 221.62979 523.9056 221.55608 538.2917 221.45778C552.6778 221.35948 581.45 221.16289 581.45 221.16289" fill-rule="nonzero"/><path fill="#000000" fill-opacity="0.0" clip-path="url(#id_0)" d="M66.55 293.70557C66.55 295.3624 65.206856 296.70557 63.55 296.70557C61.893147 296.70557 60.55 295.3624 60.55 293.70557C60.55 292.0487 61.893147 290.70557 63.55 290.70557C65.206856 290.70557 66.55 292.0487 66.55 293.70557Z" fill-rule="nonzero"/><path fill="#000000" fill-opacity="0.0" clip-path="url(#id_0)" d="M109.708336 278.96112C109.708336 280.61795 108.36519 281.96112 106.708336 281.96112C105.051476 281.96112 103.708336 280.61795 103.708336 278.96112C103.708336 277.30426 105.051476 275.96112 106.708336 275.96112C108.36519 275.96112 109.708336 277.30426 109.708336 278.96112Z" fill-rule="nonzero"/><path fill="#000000" fill-opacity="0.0" clip-path="url(#id_0)" d="M152.86667 264.21667C152.86667 265.87354 151.52351 267.21667 149.86667 267.21667C148.20981 267.21667 146.86667 265.87354 146.86667 264.21667C146.86667 262.5598 148.20981 261.21667 149.86667 261.21667C151.52351 261.21667 152.86667 262.5598 152.86667 264.21667Z" fill-rule="nonzero"/><path fill="#000000" fill-opacity="0.0" clip-path="url(#id_0)" d="M196.025 249.47223C196.025 251.12907 194.68185 252.47223 193.025 252.47223C191.36815 252.47223 190.025 251.12907 190.025 249.47223C190.025 247.81537 191.36815 246.47223 193.025 246.47223C194.68185 246.47223 196.025 247.81537 196.025 249.47223Z" fill-rule="nonzero"/><path fill="#000000" fill-opacity="0.0" clip-path="url(#id_0)" d="M239.18333 234.72778C239.18333 236.38463 237.8402 237.72778 236.18333 237.72778C234.52647 237.72778 233.18333 236.38463 233.18333 234.72778C233.18333 233.07092 234.52647 231.72778 236.18333 231.72778C237.8402 231.72778 239.18333 233.07092 239.18333 234.72778Z" fill-rule="nonzero"/><path fill="#000000" fill-opacity="0.0" clip-path="url(#id_0)" d="M282.34167 219.98334C282.34167 221.64018 280.99854 222.98334 279.34167 222.98334C277.6848 222.98334 276.34167 221.64018 276.34167 219.98334C276.34167 218.32648 277.6848 216.98334 279.34167 216.98334C280.99854 216.98334 282.34167 218.32648 282.34167 219.98334Z" fill-rule="nonzero"/><path fill="#000000" fill-opacity="0.0" clip-path="url(#id_0)" d="M325.5 205.23889C325.5 206.89574 324.15686 208.23889 322.5 208.23889C320.84314 208.23889 319.5 206.89574 319.5 205.23889C319.5 203.58203 320.84314 202.23889 322.5 202.23889C324.15686 202.23889 325.5 203.58203 325.5 205.23889Z" fill-rule="nonzero"/><path fill="#000000" fill-opacity="0.0" clip-path="url(#id_0)" d="M368.65833 190.49445C368.65833 192.1513 367.3152 193.49445 365.65833 193.49445C364.00146 193.49445 362.65833 192.1513 362.65833 190.49445C362.65833 188.83759 364.00146 187.49445 365.65833 187.49445C367.3152 187.49445 368.65833 188.83759 368.65833 190.49445Z" fill-rule="nonzero"/><path fill="#000000" fill-opacity="0.0" clip-path="url(#id_0)" d="M411.81668 175.75C411.81668 177.40686 410.4735 178.75 408.81668 178.75C407.15982 178.75 405.81668 177.40686 405.81668 175.75C405.81668 174.09314 407.15982 172.75 408.81668 172.75C410.4735 172.75 411.81668 174.09314 411.81668 175.75Z" fill-rule="nonzero"/><path fill="#000000" fill-opacity="0.0" clip-path="url(#id_0)" d="M454.975 161.00555C454.975 162.66241 453.63187 164.00555 451.975 164.00555C450.31815 164.00555 448.975 162.66241 448.975 161.00555C448.975 159.3487 450.31815 158.00555 451.975 158.00555C453.63187 158.00555 454.975 159.3487 454.975 161.00555Z" fill-rule="nonzero"/><path fill="#000000" fill-opacity="0.0" clip-path="url(#id_0)" d="M498.13333 146.26111C498.13333 147.91797 496.7902 149.26111 495.13333 149.26111C493.47647 149.26111 492.13333 147.91797 492.13333 146.26111C492.13333 144.60426 493.47647 143.26111 495.13333 143.26111C496.7902 143.26111 498.13333 144.60426 498.13333 146.26111Z" fill-rule="nonzero"/><path fill="#000000" fill-opacity="0.0" clip-path="url(#id_0)" d="M541.2917 131.51666C541.2917 133.17352 539.94855 134.51666 538.2917 134.51666C536.6348 134.51666 535.2917 133.17352 535.2917 131.51666C535.2917 129.85982 536.6348 128.51666 538.2917 128.51666C539.94855 128.51666 541.2917 129.85982 541.2917 131.51666Z" fill-rule="nonzero"/><path fill="#000000" fill-opacity="0.0" clip-path="url(#id_0)" d="M584.45 116.772224C584.45 118.42908 583.1069 119.772224 581.45 119.772224C579.79315 119.772224 578.45 118.42908 578.45 116.772224C578.45 115.11537 579.79315 113.772224 581.45 113.772224C583.1069 113.772224 584.45 115.11537 584.45 116.772224Z" fill-rule="nonzero"/><path fill="#000000" fill-opacity="0.0" clip-path="url(#id_0)" d="M66.55 271.5889C66.55 273.24576 65.206856 274.5889 63.55 274.5889C61.893147 274.5889 60.55 273.24576 60.55 271.5889C60.55 269.93204 61.893147 268.5889 63.55 268.5889C65.206856 268.5889 66.55 269.93204 66.55 271.5889Z" fill-rule="nonzero"/><path fill="#000000" fill-opacity="0.0" clip-path="url(#id_0)" d="M109.708336 237.67667C109.708336 239.33353 108.36519 240.67667 106.708336 240.67667C105.051476 240.67667 103.708336 239.33353 103.708336 237.67667C103.708336 236.0198 105.051476 234.67667 106.708336 234.67667C108.36519 234.67667 109.708336 236.0198 109.708336 237.67667Z" fill-rule="nonzero"/><path fill="#000000" fill-opacity="0.0" clip-path="url(#id_0)" d="M152.86667 231.77888C152.86667 233.43575 151.52351 234.77888 149.86667 234.77888C148.20981 234.77888 146.86667 233.43575 146.86667 231.77888C146.86667 230.12204 148.20981 228.77888 149.86667 228.77888C151.52351 228.77888 152.86667 230.12204 152.86667 231.77888Z" fill-rule="nonzero"/><path fill="#000000" fill-opacity="0.0" clip-path="url(#id_0)" d="M196.025 228.83C196.025 230.48685 194.68185 231.83 193.025 231.83C191.36815 231.83 190.025 230.48685 190.025 228.83C190.025 227.17314 191.36815 225.83 193.025 225.83C194.68185 225.83 196.025 227.17314 196.025 228.83Z" fill-rule="nonzero"/><path fill="#000000" fill-opacity="0.0" clip-path="url(#id_0)" d="M239.18333 227.35556C239.18333 229.0124 237.8402 230.35556 236.18333 230.35556C234.52647 230.35556 233.18333 229.0124 233.18333 227.35556C233.18333 225.6987 234.52647 224.35556 236.18333 224.35556C237.8402 224.35556 239.18333 225.6987 239.18333 227.35556Z" fill-rule="nonzero"/><path fill="#000000" fill-opacity="0.0" clip-path="url(#id_0)" d="M282.34167 225.8811C282.34167 227.53796 280.99854 228.8811 279.34167 228.8811C277.6848 228.8811 276.34167 227.53796 276.34167 225.8811C276.34167 224.22426 277.6848 222.8811 279.34167 222.8811C280.99854 222.8811 282.34167 224.22426 282.34167 225.8811Z" fill-rule="nonzero"/><path fill="#000000" fill-opacity="0.0" clip-path="url(#id_0)" d="M325.5 224.40666C325.5 226.06352 324.15686 227.40666 322.5 227.40666C320.84314 227.40666 319.5 226.06352 319.5 224.40666C319.5 222.74982 320.84314 221.40666 322.5 221.40666C324.15686 221.40666 325.5 222.74982 325.5 224.40666Z" fill-rule="nonzero"/><path fill="#000000" fill-opacity="0.0" clip-path="url(#id_0)" d="M368.65833 223.66945C368.65833 225.3263 367.3152 226.66945 365.65833 226.66945C364.00146 226.66945 362.65833 225.3263 362.65833 223.66945C362.65833 222.01259 364.00146 220.66945 365.65833 220.66945C367.3152 220.66945 368.65833 222.01259 368.65833 223.66945Z" fill-rule="nonzero"/><path fill="#000000" fill-opacity="0.0" clip-path="url(#id_0)" d="M411.81668 222.93222C411.81668 224.58908 410.4735 225.93222 408.81668 225.93222C407.15982 225.93222 405.81668 224.58908 405.81668 222.93222C405.81668 221.27538 407.15982 219.93222 408.81668 219.93222C410.4735 219.93222 411.81668 221.27538 411.81668 222.93222Z" fill-rule="nonzero"/><path fill="#000000" fill-opacity="0.0" clip-path="url(#id_0)" d="M454.975 222.195C454.975 223.85185 453.63187 225.195 451.975 225.195C450.31815 225.195 448.975 223.85185 448.975 222.195C448.975 220.53815 450.31815 219.195 451.975 219.195C453.63187 219.195 454.975 220.53815 454.975 222.195Z" fill-rule="nonzero"/><path fill="#000000" fill-opacity="0.0" clip-path="url(#id_0)" d="M498.13333 221.75267C498.13333 223.40952 496.7902 224.75267 495.13333 224.75267C493.47647 224.75267 492.13333 223.40952 492.13333 221.75267C492.13333 220.09581 493.47647 218.75267 495.13333 218.75267C496.7902 218.75267 498.13333 220.09581 498.13333 221.75267Z" fill-rule="nonzero"/><path fill="#000000" fill-opacity="0.0" clip-path="url(#id_0)" d="M541.2917 221.45778C541.2917 223.11464 539.94855 224.45778 538.2917 224.45778C536.6348 224.45778 535.2917 223.11464 535.2917 221.45778C535.2917 219.80092 536.6348 218.45778 538.2917 218.45778C539.94855 218.45778 541.2917 219.80092 541.2917 221.45778Z" fill-rule="nonzero"/><path fill="#000000" fill-opacity="0.0" clip-path="url(#id_0)" d="M584.45 221.16289C584.45 222.81975 583.1069 224.16289 581.45 224.16289C579.79315 224.16289 578.45 222.81975 578.45 221.16289C578.45 219.50603 579.79315 218.16289 581.45 218.16289C583.1069 218.16289 584.45 219.50603 584.45 221.16289Z" fill-rule="nonzero"/><path fill="#000000" d="M311.42188 349.45L311.42188 341.7625L308.5 341.7625L308.5 340.73126L315.51562 340.73126L315.51562 341.7625L312.57812 341.7625L312.57812 349.45L311.42188 349.45ZM320.4375 349.45L317.04688 349.45L317.04688 348.5594L318.15625 348.5594L318.15625 341.6219L317.04688 341.6219L317.04688 340.73126L320.4375 340.73126L320.4375 341.6219L319.3125 341.6219L319.3125 348.5594L320.4375 348.5594L320.4375 349.45ZM328.85938 349.45L327.70312 349.45L327.70312 341.9344L325.42188 347.04376L324.71875 347.04376L322.46875 341.9344L322.46875 349.45L321.39062 349.45L321.39062 340.73126L322.96875 340.73126L325.14062 345.575L327.25 340.73126L328.85938 340.73126L328.85938 349.45ZM330.39062 349.45L330.39062 340.73126L335.84375 340.73126L335.84375 341.7625L331.54688 341.7625L331.54688 344.15314L335.54688 344.15314L335.54688 345.1844L331.54688 345.1844L331.54688 348.41876L335.84375 348.41876L335.84375 349.45L330.39062 349.45Z" fill-rule="nonzero"/><path fill="#000000" d="M30.706263 223.0698Q30.706263 223.92917 30.425013 224.64792Q30.128138 225.36667 29.565638 225.8823Q29.003138 226.39792 28.159388 226.6948Q27.300013 226.97604 26.190638 226.97604Q25.096888 226.97604 24.284388 226.71042Q23.471888 226.42917 22.862513 225.8823Q22.284388 225.36667 21.971888 224.66354Q21.659388 223.9448 21.659388 223.05417Q21.659388 222.61667 21.737513 222.24167Q21.800013 221.85104 21.893763 221.52292Q21.987513 221.24167 22.128138 220.9448Q22.253138 220.64792 22.409388 220.35104L23.800013 220.35104L23.800013 220.4448Q23.659388 220.60104 23.471888 220.85104Q23.268763 221.08542 23.065638 221.42917Q22.893763 221.7573 22.784388 222.16354Q22.659388 222.55417 22.659388 223.0698Q22.659388 223.61667 22.893763 224.11667Q23.112513 224.61667 23.565638 224.99167Q24.003138 225.36667 24.675013 225.5698Q25.346888 225.77292 26.190638 225.77292Q27.096888 225.77292 27.753138 225.55417Q28.393763 225.33542 28.831263 224.96042Q29.268763 224.60104 29.487513 224.11667Q29.706263 223.61667 29.706263 223.0698Q29.706263 222.55417 29.581263 222.1323Q29.456263 221.71042 29.268763 221.36667Q29.096888 221.05417 28.909388 220.8198Q28.706263 220.58542 28.581263 220.4448L28.581263 220.35104L29.956263 220.35104Q30.096888 220.64792 30.221888 220.89792Q30.331263 221.14792 30.456263 221.52292Q30.581263 221.89792 30.643763 222.22604Q30.706263 222.55417 30.706263 223.0698ZM22.831263 213.30417Q23.393763 212.8198 24.253138 212.53854Q25.096888 212.2573 26.190638 212.2573Q27.253138 212.2573 28.112513 212.53854Q28.956263 212.80417 29.534388 213.30417Q30.143763 213.85104 30.440638 214.5698Q30.737513 215.27292 30.737513 216.11667Q30.737513 217.0073 30.440638 217.72604Q30.128138 218.42917 29.534388 218.92917Q28.956263 219.4448 28.112513 219.71042Q27.268763 219.97604 26.190638 219.97604Q25.081263 219.97604 24.253138 219.71042Q23.425013 219.42917 22.831263 218.92917Q22.253138 218.42917 21.956263 217.72604Q21.643763 217.0073 21.643763 216.11667Q21.643763 215.22604 21.956263 214.52292Q22.268763 213.80417 22.831263 213.30417ZM26.190638 213.47604Q25.315638 213.47604 24.659388 213.66354Q23.987513 213.85104 23.550013 214.17917Q23.096888 214.52292 22.878138 215.02292Q22.643763 215.5073 22.643763 216.11667Q22.643763 216.7573 22.862513 217.22604Q23.081263 217.6948 23.550013 218.05417Q23.987513 218.39792 24.675013 218.58542Q25.346888 218.77292 26.190638 218.77292Q27.909388 218.77292 28.815638 218.05417Q29.721888 217.33542 29.721888 216.11667Q29.721888 214.89792 28.815638 214.1948Q27.909388 213.47604 26.190638 213.47604ZM30.706263 208.05417Q30.706263 208.99167 30.518763 209.66354Q30.315638 210.33542 30.034388 210.91354L28.581263 210.91354L28.581263 210.83542Q29.112513 210.2573 29.409388 209.53854Q29.706263 208.80417 29.706263 208.1323Q29.706263 207.16354 29.315638 206.67917Q28.909388 206.17917 28.253138 206.17917Q27.721888 206.17917 27.393763 206.4448Q27.065638 206.6948 26.909388 207.2573Q26.800013 207.66354 26.721888 208.0073Q26.643763 208.33542 26.518763 208.83542Q26.393763 209.28854 26.221888 209.64792Q26.034388 210.0073 25.737513 210.28854Q25.456263 210.55417 25.065638 210.71042Q24.675013 210.85104 24.159388 210.85104Q23.096888 210.85104 22.378138 210.02292Q21.659388 209.1948 21.659388 207.91354Q21.659388 207.17917 21.815638 206.53854Q21.956263 205.8823 22.221888 205.3198L23.612513 205.3198L23.612513 205.41354Q23.237513 205.8198 22.956263 206.47604Q22.675013 207.11667 22.675013 207.83542Q22.675013 208.64792 23.050013 209.14792Q23.425013 209.64792 24.034388 209.64792Q24.596888 209.64792 24.925013 209.35104Q25.253138 209.05417 25.409388 208.5073Q25.503138 208.1323 25.628138 207.60104Q25.753138 207.0698 25.862513 206.71042Q26.143763 205.80417 26.706263 205.39792Q27.253138 204.97604 28.065638 204.97604Q28.581263 204.97604 29.081263 205.1948Q29.565638 205.39792 29.909388 205.77292Q30.300013 206.1948 30.503138 206.72604Q30.706263 207.2573 30.706263 208.05417ZM30.550013 201.4448L22.862513 201.4448L22.862513 204.36667L21.831263 204.36667L21.831263 197.35104L22.862513 197.35104L22.862513 200.28854L30.550013 200.28854L30.550013 201.4448ZM32.971886 188.21042L32.971886 189.55417Q31.753138 190.5698 30.409388 191.14792Q29.050013 191.72604 27.190638 191.72604Q25.393763 191.72604 24.018763 191.16354Q22.643763 190.58542 21.425013 189.55417L21.425013 188.21042L21.487513 188.21042Q21.925013 188.67917 22.487513 189.11667Q23.034388 189.53854 23.784388 189.91354Q24.503138 190.2573 25.378138 190.47604Q26.237513 190.6948 27.190638 190.6948Q28.206263 190.6948 29.034388 190.49167Q29.862513 190.27292 30.612513 189.91354Q31.331263 189.55417 31.909388 189.11667Q32.503136 188.66354 32.909386 188.21042L32.971886 188.21042ZM28.315638 181.36667Q29.190638 181.36667 29.815638 182.02292Q30.425013 182.67917 30.550013 183.67917L32.659386 183.67917L32.659386 184.35104L30.581263 184.35104Q30.565638 184.99167 30.425013 185.6323Q30.284388 186.27292 30.050013 186.74167L28.862513 186.74167L28.862513 186.66354Q29.206263 186.1948 29.425013 185.61667Q29.643763 185.03854 29.706263 184.35104L27.175013 184.35104Q27.143763 184.5073 27.096888 184.72604Q27.034388 184.92917 26.987513 185.0698Q26.753138 185.9448 26.268763 186.33542Q25.784388 186.71042 25.065638 186.71042Q24.237513 186.71042 23.628138 186.05417Q23.003138 185.39792 22.909388 184.35104L21.315638 184.35104L21.315638 183.67917L22.893763 183.67917Q22.909388 183.14792 23.050013 182.58542Q23.175013 182.0073 23.331263 181.64792L24.503138 181.64792L24.503138 181.74167Q24.221888 182.14792 24.018763 182.6323Q23.800013 183.11667 23.753138 183.67917L26.268763 183.67917Q26.300013 183.49167 26.346888 183.33542Q26.393763 183.16354 26.425013 183.03854Q26.612513 182.24167 27.081263 181.80417Q27.534388 181.36667 28.315638 181.36667ZM26.175013 184.35104L23.753138 184.35104Q23.800013 184.8823 24.096888 185.24167Q24.393763 185.60104 24.925013 185.60104Q25.440638 185.60104 25.721888 185.33542Q26.003138 185.0698 26.175013 184.35104ZM28.471888 182.47604Q27.925013 182.47604 27.659388 182.7573Q27.393763 183.03854 27.268763 183.67917L29.690638 183.67917Q29.628138 183.08542 29.346888 182.78854Q29.050013 182.47604 28.471888 182.47604ZM27.190638 176.39792Q29.003138 176.39792 30.378138 176.99167Q31.753138 177.5698 32.971886 178.58542L32.971886 179.92917L32.909386 179.92917Q32.503136 179.47604 31.909388 179.02292Q31.331263 178.5698 30.612513 178.22604Q29.862513 177.86667 29.018763 177.64792Q28.175013 177.42917 27.190638 177.42917Q26.237513 177.42917 25.378138 177.64792Q24.503138 177.86667 23.784388 178.22604Q23.050013 178.58542 22.471888 179.03854Q21.893763 179.49167 21.487513 179.92917L21.425013 179.92917L21.425013 178.58542Q22.643763 177.5698 24.018763 176.99167Q25.378138 176.39792 27.190638 176.39792Z" fill-rule="nonzero"/><path fill="#ffffff" d="M60.58125 308.2625Q60.58125 309.4344 60.2375 309.9969Q59.89375 310.54376 59.190624 310.54376Q58.471874 310.54376 58.128124 309.98126Q57.8 309.41876 57.8 308.27814Q57.8 307.09064 58.128124 306.54376Q58.471874 305.9969 59.190624 305.9969Q59.909374 305.9969 60.2375 306.575Q60.58125 307.1375 60.58125 308.2625ZM59.83125 309.59064Q59.925 309.3875 59.95625 309.0594Q59.9875 308.71564 59.9875 308.2625Q59.9875 307.825 59.95625 307.4969Q59.925 307.15314 59.83125 306.9344Q59.7375 306.71564 59.58125 306.60626Q59.440624 306.48126 59.190624 306.48126Q58.940624 306.48126 58.784374 306.60626Q58.628124 306.71564 58.534374 306.95Q58.45625 307.16876 58.425 307.5125Q58.39375 307.84064 58.39375 308.27814Q58.39375 308.73126 58.409374 309.04376Q58.440624 309.34064 58.534374 309.59064Q58.628124 309.8094 58.784374 309.9344Q58.940624 310.0594 59.190624 310.0594Q59.425 310.0594 59.58125 309.95Q59.7375 309.825 59.83125 309.59064Z" fill-rule="nonzero"/><path fill="#ffffff" d="M60.51875 235.33716Q60.51875 235.64966 60.409374 235.93091Q60.315624 236.19653 60.128124 236.38403Q59.940624 236.58716 59.659374 236.71216Q59.39375 236.82153 59.05 236.82153Q58.7375 236.82153 58.440624 236.74341Q58.14375 236.68091 57.909374 236.57153L57.909374 235.94653L57.95625 235.94653Q58.01875 235.99341 58.14375 236.07153Q58.26875 236.13403 58.425 236.18091Q58.596874 236.24341 58.7375 236.27466Q58.89375 236.30591 59.065624 236.30591Q59.2375 236.30591 59.409374 236.24341Q59.58125 236.18091 59.690624 236.04028Q59.8 235.91528 59.8625 235.74341Q59.925 235.57153 59.925 235.33716Q59.925 235.10278 59.846874 234.96216Q59.784374 234.80591 59.675 234.71216Q59.55 234.60278 59.3625 234.55591Q59.175 234.50903 58.95625 234.50903Q58.721874 234.50903 58.471874 234.55591Q58.2375 234.58716 58.096874 234.61841L58.096874 232.36841L60.4875 232.36841L60.4875 232.88403L58.659374 232.88403L58.659374 234.04028Q58.76875 234.02466 58.8625 234.02466Q58.971874 234.00903 59.05 234.00903Q59.39375 234.00903 59.6125 234.07153Q59.846874 234.11841 60.065624 234.29028Q60.284374 234.44653 60.39375 234.69653Q60.51875 234.94653 60.51875 235.33716Z" fill-rule="nonzero"/><path fill="#ffffff" d="M57.346874 163.00555L55.20625 163.00555L55.20625 162.55243L56.003124 162.55243L56.003124 159.63055L55.20625 159.63055L55.20625 159.23993Q55.659374 159.23993 55.8625 159.11493Q56.08125 158.98993 56.1125 158.63055L56.565624 158.63055L56.565624 162.55243L57.346874 162.55243L57.346874 163.00555ZM60.58125 160.81805Q60.58125 161.98993 60.2375 162.55243Q59.89375 163.0993 59.190624 163.0993Q58.471874 163.0993 58.128124 162.5368Q57.8 161.9743 57.8 160.83368Q57.8 159.64618 58.128124 159.0993Q58.471874 158.55243 59.190624 158.55243Q59.909374 158.55243 60.2375 159.13055Q60.58125 159.69305 60.58125 160.81805ZM59.83125 162.14618Q59.925 161.94305 59.95625 161.61493Q59.9875 161.27118 59.9875 160.81805Q59.9875 160.38055 59.95625 160.05243Q59.925 159.70868 59.83125 159.48993Q59.7375 159.27118 59.58125 159.1618Q59.440624 159.0368 59.190624 159.0368Q58.940624 159.0368 58.784374 159.1618Q58.628124 159.27118 58.534374 159.50555Q58.45625 159.7243 58.425 160.06805Q58.39375 160.39618 58.39375 160.83368Q58.39375 161.2868 58.409374 161.5993Q58.440624 161.89618 58.534374 162.14618Q58.628124 162.36493 58.784374 162.48993Q58.940624 162.61493 59.190624 162.61493Q59.425 162.61493 59.58125 162.50555Q59.7375 162.38055 59.83125 162.14618Z" fill-rule="nonzero"/><path fill="#ffffff" d="M57.346874 89.28333L55.20625 89.28333L55.20625 88.83021L56.003124 88.83021L56.003124 85.90833L55.20625 85.90833L55.20625 85.51771Q55.659374 85.51771 55.8625 85.39271Q56.08125 85.26771 56.1125 84.90833L56.565624 84.90833L56.565624 88.83021L57.346874 88.83021L57.346874 89.28333ZM60.51875 87.89271Q60.51875 88.20521 60.409374 88.48646Q60.315624 88.75208 60.128124 88.93958Q59.940624 89.14271 59.659374 89.26771Q59.39375 89.37708 59.05 89.37708Q58.7375 89.37708 58.440624 89.29896Q58.14375 89.23646 57.909374 89.12708L57.909374 88.50208L57.95625 88.50208Q58.01875 88.54896 58.14375 88.62708Q58.26875 88.68958 58.425 88.73646Q58.596874 88.79896 58.7375 88.83021Q58.89375 88.86146 59.065624 88.86146Q59.2375 88.86146 59.409374 88.79896Q59.58125 88.73646 59.690624 88.59583Q59.8 88.47083 59.8625 88.29896Q59.925 88.12708 59.925 87.89271Q59.925 87.65833 59.846874 87.51771Q59.784374 87.36146 59.675 87.26771Q59.55 87.15833 59.3625 87.11146Q59.175 87.06458 58.95625 87.06458Q58.721874 87.06458 58.471874 87.11146Q58.2375 87.14271 58.096874 87.17396L58.096874 84.92396L60.4875 84.92396L60.4875 85.43958L58.659374 85.43958L58.659374 86.59583Q58.76875 86.58021 58.8625 86.58021Q58.971874 86.56458 59.05 86.56458Q59.39375 86.56458 59.6125 86.62708Q59.846874 86.67396 60.065624 86.84583Q60.284374 87.00208 60.39375 87.25208Q60.51875 87.50208 60.51875 87.89271Z" fill-rule="nonzero"/><path fill="#ffffff" d="M108.22396 317.45L105.520836 317.45L105.520836 316.84064Q105.81771 316.5594 106.06771 316.3094Q106.333336 316.0594 106.583336 315.77814Q107.083336 315.23126 107.25521 314.90314Q107.44271 314.575 107.44271 314.23126Q107.44271 314.04376 107.38021 313.90314Q107.333336 313.7625 107.22396 313.6844Q107.13021 313.59064 106.989586 313.54376Q106.84896 313.4969 106.69271 313.4969Q106.53646 313.4969 106.38021 313.54376Q106.22396 313.575 106.06771 313.6375Q105.94271 313.6844 105.833336 313.7625Q105.72396 313.825 105.645836 313.8875L105.614586 313.8875L105.614586 313.2625Q105.802086 313.16876 106.114586 313.09064Q106.44271 312.9969 106.739586 312.9969Q107.34896 312.9969 107.69271 313.325Q108.03646 313.6375 108.03646 314.2Q108.03646 314.45 107.97396 314.66876Q107.91146 314.8875 107.81771 315.075Q107.708336 315.2625 107.552086 315.45Q107.395836 315.6375 107.22396 315.825Q106.958336 316.1219 106.614586 316.45Q106.270836 316.7625 106.083336 316.95L108.22396 316.95L108.22396 317.45Z" fill-rule="nonzero"/><path fill="#ffffff" d="M194.65 315.95L194.13437 315.95L194.13437 317.45L193.57187 317.45L193.57187 315.95L191.65 315.95L191.65 315.34064L193.5875 313.09064L194.13437 313.09064L194.13437 315.48126L194.65 315.48126L194.65 315.95ZM193.57187 315.48126L193.57187 313.77814L192.10312 315.48126L193.57187 315.48126Z" fill-rule="nonzero"/><path fill="#ffffff" d="M280.9198 316.02814Q280.9198 316.3719 280.81042 316.65314Q280.70105 316.9344 280.51355 317.1375Q280.31042 317.325 280.06042 317.4344Q279.82605 317.54376 279.52917 317.54376Q279.2323 317.54376 278.99792 317.45Q278.76355 317.34064 278.57605 317.1375Q278.34167 316.90314 278.21667 316.5125Q278.09167 316.10626 278.09167 315.52814Q278.09167 314.96564 278.20105 314.5125Q278.32605 314.04376 278.57605 313.71564Q278.81042 313.3719 279.18542 313.2Q279.56042 313.0125 280.0448 313.0125Q280.20105 313.0125 280.32605 313.02814Q280.45105 313.02814 280.5448 313.0594L280.5448 313.6219L280.51355 313.6219Q280.43542 313.575 280.27917 313.54376Q280.13855 313.5125 279.96667 313.5125Q279.4198 313.5125 279.07605 313.8875Q278.74792 314.2469 278.68542 314.96564Q278.90417 314.825 279.12292 314.7469Q279.34167 314.66876 279.6073 314.66876Q279.8573 314.66876 280.0448 314.71564Q280.2323 314.7625 280.45105 314.91876Q280.68542 315.10626 280.7948 315.3875Q280.9198 315.65314 280.9198 316.02814ZM280.32605 316.0594Q280.32605 315.79376 280.24792 315.60626Q280.18542 315.41876 280.02917 315.29376Q279.9198 315.2 279.76355 315.16876Q279.62292 315.1375 279.46667 315.1375Q279.26355 315.1375 279.06042 315.2Q278.87292 315.2625 278.68542 315.3875Q278.68542 315.45 278.68542 315.5125Q278.68542 315.575 278.68542 315.65314Q278.68542 316.10626 278.76355 316.3875Q278.8573 316.66876 278.99792 316.8094Q279.12292 316.95 279.24792 317.0125Q279.38855 317.0594 279.5448 317.0594Q279.88855 317.0594 280.1073 316.8094Q280.32605 316.5594 280.32605 316.0594Z" fill-rule="nonzero"/><path fill="#ffffff" d="M366.53333 314.10626Q366.53333 313.8094 366.3302 313.6219Q366.1427 313.41876 365.79895 313.41876Q365.47083 313.41876 365.2677 313.59064Q365.06458 313.7625 365.06458 314.075Q365.06458 314.27814 365.15833 314.4344Q365.2677 314.59064 365.48645 314.7Q365.5802 314.7469 365.75208 314.84064Q365.93958 314.9344 366.09583 314.98126Q366.34583 314.77814 366.43958 314.575Q366.53333 314.3719 366.53333 314.10626ZM366.61145 316.29376Q366.61145 316.0125 366.50208 315.85626Q366.40833 315.7 366.11145 315.54376Q366.00208 315.48126 365.8302 315.41876Q365.67395 315.35626 365.47083 315.2625Q365.22083 315.4344 365.09583 315.66876Q364.97083 315.90314 364.97083 316.2Q364.97083 316.59064 365.2052 316.85626Q365.43958 317.10626 365.79895 317.10626Q366.17395 317.10626 366.3927 316.8875Q366.61145 316.66876 366.61145 316.29376ZM365.79895 317.54376Q365.47083 317.54376 365.2052 317.45Q364.93958 317.35626 364.75208 317.16876Q364.56458 316.9969 364.47083 316.7625Q364.37708 316.5125 364.37708 316.2469Q364.37708 315.8875 364.56458 315.59064Q364.75208 315.29376 365.11145 315.1219L365.11145 315.10626Q364.79895 314.91876 364.6427 314.7Q364.48645 314.46564 364.48645 314.1375Q364.48645 313.6375 364.84583 313.3094Q365.22083 312.98126 365.79895 312.98126Q366.3927 312.98126 366.75208 313.29376Q367.11145 313.60626 367.11145 314.09064Q367.11145 314.3875 366.93958 314.6844Q366.7677 314.96564 366.43958 315.1219L366.43958 315.1375Q366.8302 315.325 367.0177 315.575Q367.22083 315.825 367.22083 316.23126Q367.22083 316.79376 366.81458 317.16876Q366.40833 317.54376 365.79895 317.54376Z" fill-rule="nonzero"/><path fill="#ffffff" d="M451.77188 317.45L449.63126 317.45L449.63126 316.9969L450.42813 316.9969L450.42813 314.075L449.63126 314.075L449.63126 313.6844Q450.08438 313.6844 450.2875 313.5594Q450.50626 313.4344 450.5375 313.075L450.99063 313.075L450.99063 316.9969L451.77188 316.9969L451.77188 317.45ZM455.00626 315.2625Q455.00626 316.4344 454.6625 316.9969Q454.31876 317.54376 453.61563 317.54376Q452.89688 317.54376 452.55313 316.98126Q452.225 316.41876 452.225 315.27814Q452.225 314.09064 452.55313 313.54376Q452.89688 312.9969 453.61563 312.9969Q454.33438 312.9969 454.6625 313.575Q455.00626 314.1375 455.00626 315.2625ZM454.25626 316.59064Q454.35 316.3875 454.38126 316.0594Q454.4125 315.71564 454.4125 315.2625Q454.4125 314.825 454.38126 314.4969Q454.35 314.15314 454.25626 313.9344Q454.1625 313.71564 454.00626 313.60626Q453.86563 313.48126 453.61563 313.48126Q453.36563 313.48126 453.20938 313.60626Q453.05313 313.71564 452.95938 313.95Q452.88126 314.16876 452.85 314.5125Q452.81876 314.84064 452.81876 315.27814Q452.81876 315.73126 452.83438 316.04376Q452.86563 316.34064 452.95938 316.59064Q453.05313 316.8094 453.20938 316.9344Q453.36563 317.0594 453.61563 317.0594Q453.85 317.0594 454.00626 316.95Q454.1625 316.825 454.25626 316.59064Z" fill-rule="nonzero"/><path fill="#ffffff" d="M538.08856 317.45L535.94794 317.45L535.94794 316.9969L536.7448 316.9969L536.7448 314.075L535.94794 314.075L535.94794 313.6844Q536.40106 313.6844 536.6042 313.5594Q536.82294 313.4344 536.8542 313.075L537.3073 313.075L537.3073 316.9969L538.08856 316.9969L538.08856 317.45ZM541.3073 317.45L538.6042 317.45L538.6042 316.84064Q538.90106 316.5594 539.15106 316.3094Q539.4167 316.0594 539.6667 315.77814Q540.1667 315.23126 540.33856 314.90314Q540.52606 314.575 540.52606 314.23126Q540.52606 314.04376 540.46356 313.90314Q540.4167 313.7625 540.3073 313.6844Q540.21356 313.59064 540.07294 313.54376Q539.9323 313.4969 539.77606 313.4969Q539.6198 313.4969 539.46356 313.54376Q539.3073 313.575 539.15106 313.6375Q539.02606 313.6844 538.9167 313.7625Q538.8073 313.825 538.7292 313.8875L538.69794 313.8875L538.69794 313.2625Q538.88544 313.16876 539.19794 313.09064Q539.52606 312.9969 539.82294 312.9969Q540.4323 312.9969 540.77606 313.325Q541.1198 313.6375 541.1198 314.2Q541.1198 314.45 541.0573 314.66876Q540.9948 314.8875 540.90106 315.075Q540.7917 315.2625 540.63544 315.45Q540.4792 315.6375 540.3073 315.825Q540.0417 316.1219 539.69794 316.45Q539.3542 316.7625 539.1667 316.95L541.3073 316.95L541.3073 317.45Z" fill-rule="nonzero"/><path stroke="#ffd966" stroke-width="4.0" stroke-linecap="butt" d="M212.0 63.416668L224.0 63.416668" fill-rule="nonzero"/><path fill="#1a1a1a" d="M240.35938 67.916664L239.20312 67.916664L239.20312 60.40104L236.92188 65.510414L236.21875 65.510414L233.96875 60.40104L233.96875 67.916664L232.89062 67.916664L232.89062 59.197914L234.46875 59.197914L236.64062 64.041664L238.75 59.197914L240.35938 59.197914L240.35938 67.916664ZM240.9375 67.916664L243.89062 59.197914L245.3125 59.197914L248.25 67.916664L247.03125 67.916664L246.23438 65.479164L242.90625 65.479164L242.10938 67.916664L240.9375 67.916664ZM245.92188 64.49479L244.5625 60.36979L243.23438 64.49479L245.92188 64.49479ZM256.125 67.916664L254.82812 67.916664L250.96875 60.385414L250.96875 67.916664L249.89062 67.916664L249.89062 59.197914L251.53125 59.197914L255.04688 66.104164L255.04688 59.197914L256.125 59.197914L256.125 67.916664ZM260.9375 68.104164Q260.17188 68.104164 259.59375 67.90104Q259.01562 67.697914 258.60938 67.291664Q258.15625 66.83854 257.96875 66.21354Q257.78125 65.572914 257.78125 64.635414L257.78125 59.197914L258.9375 59.197914L258.9375 64.635414Q258.9375 65.24479 259.01562 65.65104Q259.09375 66.05729 259.3125 66.385414Q259.54688 66.74479 259.95312 66.93229Q260.35938 67.104164 260.9375 67.104164Q261.48438 67.104164 261.90625 66.93229Q262.32812 66.74479 262.5625 66.385414Q262.76562 66.05729 262.84375 65.65104Q262.9375 65.24479 262.9375 64.666664L262.9375 59.197914L264.09375 59.197914L264.09375 64.635414Q264.09375 65.541664 263.90625 66.197914Q263.71875 66.83854 263.26562 67.291664Q262.84375 67.697914 262.28125 67.90104Q261.73438 68.104164 260.9375 68.104164ZM264.9375 67.916664L267.89062 59.197914L269.3125 59.197914L272.25 67.916664L271.03125 67.916664L270.23438 65.479164L266.90625 65.479164L266.10938 67.916664L264.9375 67.916664ZM269.92188 64.49479L268.5625 60.36979L267.23438 64.49479L269.92188 64.49479ZM278.9375 67.916664L273.89062 67.916664L273.89062 59.197914L275.04688 59.197914L275.04688 66.885414L278.9375 66.885414L278.9375 67.916664Z" fill-rule="nonzero"/><path stroke="#ff9900" stroke-width="4.0" stroke-linecap="butt" d="M295.0 63.416668L307.0 63.416668" fill-rule="nonzero"/><path fill="#1a1a1a" d="M314.9375 67.916664L317.89062 59.197914L319.3125 59.197914L322.25 67.916664L321.03125 67.916664L320.23438 65.479164L316.90625 65.479164L316.10938 67.916664L314.9375 67.916664ZM319.92188 64.49479L318.5625 60.36979L317.23438 64.49479L319.92188 64.49479ZM326.9375 68.104164Q326.17188 68.104164 325.59375 67.90104Q325.01562 67.697914 324.60938 67.291664Q324.15625 66.83854 323.96875 66.21354Q323.78125 65.572914 323.78125 64.635414L323.78125 59.197914L324.9375 59.197914L324.9375 64.635414Q324.9375 65.24479 325.01562 65.65104Q325.09375 66.05729 325.3125 66.385414Q325.54688 66.74479 325.95312 66.93229Q326.35938 67.104164 326.9375 67.104164Q327.48438 67.104164 327.90625 66.93229Q328.32812 66.74479 328.5625 66.385414Q328.76562 66.05729 328.84375 65.65104Q328.9375 65.24479 328.9375 64.666664L328.9375 59.197914L330.09375 59.197914L330.09375 64.635414Q330.09375 65.541664 329.90625 66.197914Q329.71875 66.83854 329.26562 67.291664Q328.84375 67.697914 328.28125 67.90104Q327.73438 68.104164 326.9375 68.104164ZM333.92188 67.916664L333.92188 60.229164L331.0 60.229164L331.0 59.197914L338.01562 59.197914L338.01562 60.229164L335.07812 60.229164L335.07812 67.916664L333.92188 67.916664ZM346.0625 60.197914Q346.54688 60.760414 346.82812 61.61979Q347.10938 62.46354 347.10938 63.55729Q347.10938 64.61979 346.82812 65.479164Q346.5625 66.322914 346.0625 66.90104Q345.51562 67.510414 344.79688 67.80729Q344.09375 68.104164 343.25 68.104164Q342.35938 68.104164 341.64062 67.80729Q340.9375 67.49479 340.4375 66.90104Q339.92188 66.322914 339.65625 65.479164Q339.39062 64.635414 339.39062 63.55729Q339.39062 62.447914 339.65625 61.61979Q339.9375 60.791664 340.4375 60.197914Q340.9375 59.61979 341.64062 59.322914Q342.35938 59.010414 343.25 59.010414Q344.14062 59.010414 344.84375 59.322914Q345.5625 59.635414 346.0625 60.197914ZM345.89062 63.55729Q345.89062 62.68229 345.70312 62.02604Q345.51562 61.354164 345.1875 60.916664Q344.84375 60.46354 344.34375 60.24479Q343.85938 60.010414 343.25 60.010414Q342.60938 60.010414 342.14062 60.229164Q341.67188 60.447914 341.3125 60.916664Q340.96875 61.354164 340.78125 62.041664Q340.59375 62.71354 340.59375 63.55729Q340.59375 65.27604 341.3125 66.18229Q342.03125 67.08854 343.25 67.08854Q344.46875 67.08854 345.17188 66.18229Q345.89062 65.27604 345.89062 63.55729ZM356.35938 67.916664L355.20312 67.916664L355.20312 60.40104L352.92188 65.510414L352.21875 65.510414L349.96875 60.40104L349.96875 67.916664L348.89062 67.916664L348.89062 59.197914L350.46875 59.197914L352.64062 64.041664L354.75 59.197914L356.35938 59.197914L356.35938 67.916664ZM356.9375 67.916664L359.89062 59.197914L361.3125 59.197914L364.25 67.916664L363.03125 67.916664L362.23438 65.479164L358.90625 65.479164L358.10938 67.916664L356.9375 67.916664ZM361.92188 64.49479L360.5625 60.36979L359.23438 64.49479L361.92188 64.49479ZM367.92188 67.916664L367.92188 60.229164L365.0 60.229164L365.0 59.197914L372.01562 59.197914L372.01562 60.229164L369.07812 60.229164L369.07812 67.916664L367.92188 67.916664ZM373.89062 67.916664L373.89062 59.197914L379.34375 59.197914L379.34375 60.229164L375.04688 60.229164L375.04688 62.61979L379.04688 62.61979L379.04688 63.65104L375.04688 63.65104L375.04688 66.885414L379.34375 66.885414L379.34375 67.916664L373.89062 67.916664ZM387.76562 63.55729Q387.76562 64.760414 387.28125 65.729164Q386.79688 66.68229 385.98438 67.21354Q385.32812 67.635414 384.64062 67.77604Q383.95312 67.916664 382.89062 67.916664L380.89062 67.916664L380.89062 59.197914L382.875 59.197914Q384.10938 59.197914 384.79688 59.385414Q385.5 59.55729 386.0 59.885414Q386.84375 60.43229 387.29688 61.36979Q387.76562 62.291664 387.76562 63.55729ZM386.5625 63.541664Q386.5625 62.541664 386.21875 61.83854Q385.89062 61.11979 385.23438 60.71354Q384.76562 60.43229 384.23438 60.30729Q383.71875 60.18229 382.9375 60.18229L382.04688 60.18229L382.04688 66.916664L382.9375 66.916664Q383.70312 66.916664 384.28125 66.791664Q384.85938 66.666664 385.34375 66.33854Q385.95312 65.93229 386.25 65.24479Q386.5625 64.55729 386.5625 63.541664Z" fill-rule="nonzero"/><path fill="#666666" d="M23.425 37.55L23.425 24.721874L18.534374 24.721874L18.534374 23.003124L30.2375 23.003124L30.2375 24.721874L25.3625 24.721874L25.3625 37.55L23.425 37.55ZM40.846874 32.096874Q40.846874 34.846874 39.51875 36.346874Q38.190624 37.846874 35.9875 37.846874Q33.721874 37.846874 32.409374 36.3Q31.1125 34.753124 31.1125 32.096874Q31.1125 29.3625 32.45625 27.846874Q33.8 26.33125 35.9875 26.33125Q38.190624 26.33125 39.51875 27.846874Q40.846874 29.3625 40.846874 32.096874ZM38.95625 32.096874Q38.95625 29.9875 38.175 28.95625Q37.409374 27.925 35.9875 27.925Q34.55 27.925 33.76875 28.95625Q33.003124 29.9875 33.003124 32.096874Q33.003124 34.14375 33.76875 35.20625Q34.55 36.26875 35.9875 36.26875Q37.409374 36.26875 38.175 35.2375Q38.95625 34.190624 38.95625 32.096874ZM46.175 37.76875Q44.675 37.76875 43.83125 36.909374Q43.003124 36.05 43.003124 34.20625L43.003124 28.159374L41.753124 28.159374L41.753124 26.64375L43.003124 26.64375L43.003124 23.503124L44.83125 23.503124L44.83125 26.64375L48.20625 26.64375L48.20625 28.159374L44.83125 28.159374L44.83125 33.346874Q44.83125 34.175 44.8625 34.628124Q44.89375 35.08125 45.08125 35.471874Q45.253124 35.815624 45.6125 35.9875Q45.9875 36.159374 46.628124 36.159374Q47.08125 36.159374 47.503124 36.034374Q47.925 35.89375 48.096874 35.8L48.20625 35.8L48.20625 37.45625Q47.690624 37.596874 47.159374 37.675Q46.628124 37.76875 46.175 37.76875ZM55.971874 34.8625L55.971874 31.83125Q55.315624 31.89375 54.315624 32.003124Q53.315624 32.096874 52.70625 32.284374Q51.971874 32.503124 51.4875 32.971874Q51.01875 33.440624 51.01875 34.26875Q51.01875 35.20625 51.534374 35.690624Q52.065624 36.159374 53.08125 36.159374Q53.95625 36.159374 54.659374 35.784374Q55.3625 35.409374 55.971874 34.8625ZM55.971874 36.39375Q55.753124 36.55 55.378124 36.846874Q55.003124 37.14375 54.64375 37.33125Q54.159374 37.58125 53.70625 37.70625Q53.253124 37.846874 52.425 37.846874Q51.753124 37.846874 51.14375 37.596874Q50.55 37.346874 50.08125 36.878124Q49.64375 36.440624 49.378124 35.784374Q49.1125 35.1125 49.1125 34.378124Q49.1125 33.253124 49.596874 32.45625Q50.08125 31.659374 51.1125 31.190624Q52.034374 30.76875 53.284374 30.6125Q54.534374 30.45625 55.971874 30.378124L55.971874 30.01875Q55.971874 29.378124 55.76875 28.9875Q55.58125 28.58125 55.2375 28.3625Q54.878124 28.14375 54.3625 28.08125Q53.8625 28.003124 53.33125 28.003124Q52.690624 28.003124 51.83125 28.190624Q50.971874 28.378124 50.1125 28.7375L50.003124 28.7375L50.003124 26.878124Q50.51875 26.721874 51.45625 26.55Q52.409374 26.378124 53.33125 26.378124Q54.45625 26.378124 55.221874 26.55Q56.003124 26.721874 56.6125 27.190624Q57.20625 27.64375 57.503124 28.3625Q57.8 29.065624 57.8 30.08125L57.8 37.55L55.971874 37.55L55.971874 36.39375ZM62.753124 37.55L60.925 37.55L60.925 22.346874L62.753124 22.346874L62.753124 37.55ZM76.22188 37.8Q75.09688 37.8 74.15938 37.45625Q73.22188 37.096874 72.55 36.39375Q71.8625 35.690624 71.4875 34.628124Q71.12813 33.55 71.12813 32.1125Q71.12813 30.675 71.50313 29.628124Q71.89375 28.58125 72.55 27.878124Q73.19063 27.159374 74.14375 26.784374Q75.1125 26.39375 76.22188 26.39375Q77.1125 26.39375 77.94063 26.64375Q78.78438 26.89375 79.44063 27.221874L79.44063 29.284374L79.33125 29.284374Q79.12813 29.128124 78.81563 28.909374Q78.51875 28.690624 78.08125 28.471874Q77.70625 28.26875 77.175 28.128124Q76.65938 27.971874 76.19063 27.971874Q74.75313 27.971874 73.89375 29.065624Q73.03438 30.14375 73.03438 32.1125Q73.03438 34.05 73.8625 35.128124Q74.70625 36.20625 76.19063 36.20625Q77.08125 36.20625 77.89375 35.83125Q78.70625 35.45625 79.33125 34.878124L79.44063 34.878124L79.44063 36.940624Q79.15938 37.065624 78.75313 37.253124Q78.34688 37.425 78.01875 37.503124Q77.55 37.64375 77.175 37.721874Q76.8 37.8 76.22188 37.8ZM89.84688 32.096874Q89.84688 34.846874 88.51875 36.346874Q87.19063 37.846874 84.9875 37.846874Q82.72188 37.846874 81.40938 36.3Q80.1125 34.753124 80.1125 32.096874Q80.1125 29.3625 81.45625 27.846874Q82.8 26.33125 84.9875 26.33125Q87.19063 26.33125 88.51875 27.846874Q89.84688 29.3625 89.84688 32.096874ZM87.95625 32.096874Q87.95625 29.9875 87.175 28.95625Q86.40938 27.925 84.9875 27.925Q83.55 27.925 82.76875 28.95625Q82.00313 29.9875 82.00313 32.096874Q82.00313 34.14375 82.76875 35.20625Q83.55 36.26875 84.9875 36.26875Q86.40938 36.26875 87.175 35.2375Q87.95625 34.190624 87.95625 32.096874ZM94.83125 37.815624Q93.7375 37.815624 92.78438 37.51875Q91.83125 37.221874 91.20625 36.89375L91.20625 34.83125L91.3 34.83125Q91.53438 35.01875 91.84688 35.253124Q92.175 35.471874 92.70625 35.70625Q93.175 35.925 93.72188 36.096874Q94.28438 36.253124 94.89375 36.253124Q95.33125 36.253124 95.83125 36.159374Q96.33125 36.05 96.58125 35.89375Q96.925 35.675 97.06563 35.425Q97.22188 35.159374 97.22188 34.659374Q97.22188 34.003124 96.8625 33.675Q96.50313 33.346874 95.59688 33.1125Q95.25313 33.034374 94.675 32.925Q94.1125 32.8 93.64375 32.659374Q92.39375 32.3 91.81563 31.55Q91.25313 30.784374 91.25313 29.70625Q91.25313 28.2375 92.3625 27.315624Q93.4875 26.378124 95.33125 26.378124Q96.2375 26.378124 97.14375 26.6125Q98.06563 26.83125 98.69063 27.175L98.69063 29.128124L98.59688 29.128124Q97.89375 28.58125 97.01875 28.253124Q96.15938 27.925 95.28438 27.925Q94.37813 27.925 93.75313 28.315624Q93.12813 28.690624 93.12813 29.45625Q93.12813 30.14375 93.50313 30.4875Q93.87813 30.815624 94.69063 31.034374Q95.09688 31.14375 95.59688 31.253124Q96.1125 31.346874 96.65938 31.4875Q97.87813 31.784374 98.4875 32.4875Q99.09688 33.190624 99.09688 34.409374Q99.09688 35.1125 98.81563 35.7375Q98.53438 36.3625 98.00313 36.815624Q97.40938 37.3 96.675 37.55Q95.94063 37.815624 94.83125 37.815624ZM104.175 37.76875Q102.675 37.76875 101.83125 36.909374Q101.00313 36.05 101.00313 34.20625L101.00313 28.159374L99.75313 28.159374L99.75313 26.64375L101.00313 26.64375L101.00313 23.503124L102.83125 23.503124L102.83125 26.64375L106.20625 26.64375L106.20625 28.159374L102.83125 28.159374L102.83125 33.346874Q102.83125 34.175 102.8625 34.628124Q102.89375 35.08125 103.08125 35.471874Q103.25313 35.815624 103.6125 35.9875Q103.9875 36.159374 104.62813 36.159374Q105.08125 36.159374 105.50313 36.034374Q105.925 35.89375 106.09688 35.8L106.20625 35.8L106.20625 37.45625Q105.69063 37.596874 105.15938 37.675Q104.62813 37.76875 104.175 37.76875ZM122.84688 32.096874Q122.84688 34.846874 121.51875 36.346874Q120.19063 37.846874 117.9875 37.846874Q115.72188 37.846874 114.40938 36.3Q113.1125 34.753124 113.1125 32.096874Q113.1125 29.3625 114.45625 27.846874Q115.8 26.33125 117.9875 26.33125Q120.19063 26.33125 121.51875 27.846874Q122.84688 29.3625 122.84688 32.096874ZM120.95625 32.096874Q120.95625 29.9875 120.175 28.95625Q119.40938 27.925 117.9875 27.925Q116.55 27.925 115.76875 28.95625Q115.00313 29.9875 115.00313 32.096874Q115.00313 34.14375 115.76875 35.20625Q116.55 36.26875 117.9875 36.26875Q119.40938 36.26875 120.175 35.2375Q120.95625 34.190624 120.95625 32.096874ZM130.62813 24.1125L130.51875 24.1125Q130.28438 24.01875 129.81563 23.940624Q129.3625 23.8625 129.00313 23.8625Q127.83125 23.8625 127.33125 24.39375Q126.84688 24.909374 126.84688 26.26875L126.84688 26.64375L129.89375 26.64375L129.89375 28.159374L126.90938 28.159374L126.90938 37.55L125.08125 37.55L125.08125 28.159374L123.83125 28.159374L123.83125 26.64375L125.08125 26.64375L125.08125 26.284374Q125.08125 24.3 126.01875 23.284374Q126.97188 22.253124 128.7375 22.253124Q129.2375 22.253124 129.72188 22.315624Q130.22188 22.3625 130.62813 22.425L130.62813 24.1125ZM150.09688 26.64375L147.33125 37.55L145.64375 37.55L142.97188 29.14375L140.33125 37.55L138.64375 37.55L135.84688 26.64375L137.75313 26.64375L139.675 35.08125L142.26875 26.64375L143.78438 26.64375L146.44063 35.08125L148.25313 26.64375L150.09688 26.64375ZM160.84688 32.096874Q160.84688 34.846874 159.51875 36.346874Q158.19063 37.846874 155.9875 37.846874Q153.72188 37.846874 152.40938 36.3Q151.1125 34.753124 151.1125 32.096874Q151.1125 29.3625 152.45625 27.846874Q153.8 26.33125 155.9875 26.33125Q158.19063 26.33125 159.51875 27.846874Q160.84688 29.3625 160.84688 32.096874ZM158.95625 32.096874Q158.95625 29.9875 158.175 28.95625Q157.40938 27.925 155.9875 27.925Q154.55 27.925 153.76875 28.95625Q153.00313 29.9875 153.00313 32.096874Q153.00313 34.14375 153.76875 35.20625Q154.55 36.26875 155.9875 36.26875Q157.40938 36.26875 158.175 35.2375Q158.95625 34.190624 158.95625 32.096874ZM168.65938 28.6125L168.56563 28.6125Q168.3625 28.55 168.12813 28.534374Q167.89375 28.51875 167.58125 28.51875Q166.83125 28.51875 166.09688 28.846874Q165.3625 29.175 164.72188 29.8L164.72188 37.55L162.87813 37.55L162.87813 26.64375L164.72188 26.64375L164.72188 28.26875Q165.72188 27.378124 166.47188 27.01875Q167.22188 26.64375 167.925 26.64375Q168.20625 26.64375 168.34688 26.659374Q168.4875 26.675 168.65938 26.70625L168.65938 28.6125ZM178.925 37.55L176.50313 37.55L172.44063 32.284374L171.72188 32.9875L171.72188 37.55L169.87813 37.55L169.87813 22.346874L171.72188 22.346874L171.72188 31.253124L176.03438 26.64375L178.31563 26.64375L173.83125 31.20625L178.925 37.55ZM194.84688 32.096874Q194.84688 34.846874 193.51875 36.346874Q192.19063 37.846874 189.9875 37.846874Q187.72188 37.846874 186.40938 36.3Q185.1125 34.753124 185.1125 32.096874Q185.1125 29.3625 186.45625 27.846874Q187.8 26.33125 189.9875 26.33125Q192.19063 26.33125 193.51875 27.846874Q194.84688 29.3625 194.84688 32.096874ZM192.95625 32.096874Q192.95625 29.9875 192.175 28.95625Q191.40938 27.925 189.9875 27.925Q188.55 27.925 187.76875 28.95625Q187.00313 29.9875 187.00313 32.096874Q187.00313 34.14375 187.76875 35.20625Q188.55 36.26875 189.9875 36.26875Q191.40938 36.26875 192.175 35.2375Q192.95625 34.190624 192.95625 32.096874ZM205.45625 26.64375L201.34688 37.55L199.69063 37.55L195.6125 26.64375L197.59688 26.64375L200.58125 35.065624L203.53438 26.64375L205.45625 26.64375ZM211.6125 37.8Q209.00313 37.8 207.56563 36.33125Q206.12813 34.8625 206.12813 32.159374Q206.12813 29.4875 207.51875 27.909374Q208.925 26.33125 211.175 26.33125Q212.19063 26.33125 212.97188 26.628124Q213.75313 26.925 214.34688 27.55Q214.925 28.175 215.2375 29.08125Q215.55 29.9875 215.55 31.284374L215.55 32.284374L207.9875 32.284374Q207.9875 34.190624 208.94063 35.20625Q209.90938 36.20625 211.59688 36.20625Q212.20625 36.20625 212.78438 36.065624Q213.3625 35.925 213.83125 35.70625Q214.33125 35.4875 214.675 35.284374Q215.01875 35.065624 215.2375 34.878124L215.34688 34.878124L215.34688 36.878124Q215.01875 37.01875 214.53438 37.20625Q214.06563 37.39375 213.69063 37.503124Q213.14375 37.64375 212.70625 37.721874Q212.28438 37.8 211.6125 37.8ZM213.76875 30.878124Q213.7375 30.14375 213.58125 29.6125Q213.425 29.065624 213.14375 28.690624Q212.81563 28.284374 212.31563 28.065624Q211.81563 27.846874 211.06563 27.846874Q210.33125 27.846874 209.81563 28.065624Q209.31563 28.284374 208.89375 28.70625Q208.4875 29.14375 208.26875 29.675Q208.05 30.190624 207.9875 30.878124L213.76875 30.878124ZM223.65938 28.6125L223.56563 28.6125Q223.3625 28.55 223.12813 28.534374Q222.89375 28.51875 222.58125 28.51875Q221.83125 28.51875 221.09688 28.846874Q220.3625 29.175 219.72188 29.8L219.72188 37.55L217.87813 37.55L217.87813 26.64375L219.72188 26.64375L219.72188 28.26875Q220.72188 27.378124 221.47188 27.01875Q222.22188 26.64375 222.925 26.64375Q223.20625 26.64375 223.34688 26.659374Q223.4875 26.675 223.65938 26.70625L223.65938 28.6125ZM234.175 37.76875Q232.675 37.76875 231.83125 36.909374Q231.00313 36.05 231.00313 34.20625L231.00313 28.159374L229.75313 28.159374L229.75313 26.64375L231.00313 26.64375L231.00313 23.503124L232.83125 23.503124L232.83125 26.64375L236.20625 26.64375L236.20625 28.159374L232.83125 28.159374L232.83125 33.346874Q232.83125 34.175 232.8625 34.628124Q232.89375 35.08125 233.08125 35.471874Q233.25313 35.815624 233.6125 35.9875Q233.9875 36.159374 234.62813 36.159374Q235.08125 36.159374 235.50313 36.034374Q235.925 35.89375 236.09688 35.8L236.20625 35.8L236.20625 37.45625Q235.69063 37.596874 235.15938 37.675Q234.62813 37.76875 234.175 37.76875ZM239.75313 37.55L237.925 37.55L237.925 26.64375L239.75313 26.64375L239.75313 37.55ZM239.87813 24.815624L237.78438 24.815624L237.78438 22.909374L239.87813 22.909374L239.87813 24.815624ZM255.26875 37.55L255.26875 31.2375Q255.26875 30.4875 255.20625 29.846874Q255.14375 29.20625 254.95625 28.846874Q254.76875 28.45625 254.39375 28.26875Q254.03438 28.08125 253.425 28.08125Q252.8625 28.08125 252.20625 28.440624Q251.56563 28.784374 250.8625 29.440624Q250.87813 29.596874 250.89375 29.83125Q250.90938 30.065624 250.90938 30.378124L250.90938 37.55L249.06563 37.55L249.06563 31.2375Q249.06563 30.4875 249.00313 29.846874Q248.95625 29.20625 248.76875 28.846874Q248.56563 28.45625 248.20625 28.26875Q247.84688 28.08125 247.2375 28.08125Q246.64375 28.08125 245.9875 28.45625Q245.33125 28.83125 244.72188 29.409374L244.72188 37.55L242.87813 37.55L242.87813 26.64375L244.72188 26.64375L244.72188 27.846874Q245.44063 27.128124 246.14375 26.7375Q246.84688 26.33125 247.70625 26.33125Q248.675 26.33125 249.40938 26.784374Q250.15938 27.221874 250.55 28.221874Q251.37813 27.3 252.175 26.815624Q252.97188 26.33125 253.89375 26.33125Q254.59688 26.33125 255.175 26.565624Q255.75313 26.784374 256.175 27.26875Q256.6125 27.76875 256.84686 28.51875Q257.09686 29.253124 257.09686 30.378124L257.09686 37.55L255.26875 37.55ZM264.6125 37.8Q262.0031 37.8 260.5656 36.33125Q259.1281 34.8625 259.1281 32.159374Q259.1281 29.4875 260.51874 27.909374Q261.925 26.33125 264.175 26.33125Q265.1906 26.33125 265.97186 26.628124Q266.7531 26.925 267.34686 27.55Q267.925 28.175 268.2375 29.08125Q268.55 29.9875 268.55 31.284374L268.55 32.284374L260.9875 32.284374Q260.9875 34.190624 261.9406 35.20625Q262.90936 36.20625 264.59686 36.20625Q265.20624 36.20625 265.78436 36.065624Q266.3625 35.925 266.83124 35.70625Q267.33124 35.4875 267.675 35.284374Q268.01874 35.065624 268.2375 34.878124L268.34686 34.878124L268.34686 36.878124Q268.01874 37.01875 267.53436 37.20625Q267.0656 37.39375 266.6906 37.503124Q266.14374 37.64375 265.70624 37.721874Q265.28436 37.8 264.6125 37.8ZM266.76874 30.878124Q266.7375 30.14375 266.58124 29.6125Q266.425 29.065624 266.14374 28.690624Q265.8156 28.284374 265.3156 28.065624Q264.8156 27.846874 264.0656 27.846874Q263.33124 27.846874 262.8156 28.065624Q262.3156 28.284374 261.89374 28.70625Q261.4875 29.14375 261.26874 29.675Q261.05 30.190624 260.9875 30.878124L266.76874 30.878124Z" fill-rule="nonzero"/></svg>